<?xml version="1.0" standalone="no"?>
<!DOCTYPE svg PUBLIC "-//W3C//DTD SVG 20010904//EN"
 "http://www.w3.org/TR/2001/REC-SVG-20010904/DTD/svg10.dtd">
<svg version="1.0" xmlns="http://www.w3.org/2000/svg"
 width="256.000000pt" height="256.000000pt" viewBox="0 0 256.000000 256.000000"
 preserveAspectRatio="xMidYMid meet">
<metadata>
Created by potrace 1.11, written by Peter Selinger 2001-2013
</metadata>
<g transform="translate(0.000000,256.000000) scale(0.100000,-0.100000)"
fill="#000000" stroke="none">
<path d="M440 2519 c-55 -25 -105 -71 -133 -124 l-22 -40 0 -1075 c0 -1029 1
-1076 19 -1110 26 -49 74 -98 121 -123 l40 -22 815 0 815 0 40 22 c47 25 95
74 121 123 18 34 19 81 19 1110 0 1029 -1 1076 -19 1110 -26 49 -74 98 -121
123 -40 22 -41 22 -845 24 -791 3 -806 2 -850 -18z m1651 -122 c74 -49 69 27
69 -1123 l0 -1032 -23 -33 c-48 -72 -4 -69 -857 -69 -853 0 -809 -4 -857 69
l-23 34 3 1047 c2 1032 2 1048 22 1070 11 13 34 31 50 41 29 18 67 19 806 19
l777 0 33 -23z"/>
<path d="M640 2180 c-18 -18 -20 -33 -20 -184 0 -159 1 -165 22 -180 20 -14
97 -16 640 -16 605 0 618 0 638 20 18 18 20 33 20 184 0 159 -1 165 -22 180
-20 14 -97 16 -640 16 -605 0 -618 0 -638 -20z m1180 -180 l0 -80 -540 0 -540
0 0 80 0 80 540 0 540 0 0 -80z"/>
<path d="M640 1660 c-18 -18 -20 -33 -20 -164 0 -184 -9 -176 182 -176 185 0
178 -7 178 180 0 187 7 180 -180 180 -127 0 -142 -2 -160 -20z"/>
<path d="M1120 1660 c-18 -18 -20 -33 -20 -164 0 -184 -8 -176 180 -176 188 0
180 -8 180 176 0 192 8 184 -180 184 -127 0 -142 -2 -160 -20z"/>
<path d="M1600 1660 c-18 -18 -20 -33 -20 -160 0 -127 2 -142 20 -160 18 -18
33 -20 160 -20 188 0 180 -8 180 184 0 184 9 176 -182 176 -125 0 -140 -2
-158 -20z"/>
<path d="M640 1180 c-18 -18 -20 -33 -20 -164 0 -184 -8 -176 180 -176 188 0
180 -8 180 176 0 192 8 184 -180 184 -127 0 -142 -2 -160 -20z"/>
<path d="M1120 1180 c-18 -18 -20 -33 -20 -160 0 -187 -7 -180 180 -180 187 0
180 -7 180 180 0 127 -2 142 -20 160 -18 18 -33 20 -160 20 -127 0 -142 -2
-160 -20z"/>
<path d="M1600 1180 c-19 -19 -20 -33 -20 -400 0 -367 1 -381 20 -400 18 -18
33 -20 160 -20 127 0 142 2 160 20 19 19 20 33 20 400 0 367 -1 381 -20 400
-18 18 -33 20 -160 20 -127 0 -142 -2 -160 -20z"/>
<path d="M640 700 c-18 -18 -20 -33 -20 -160 0 -127 2 -142 20 -160 18 -18 33
-20 160 -20 187 0 180 -7 180 180 0 127 -2 142 -20 160 -18 18 -33 20 -160 20
-127 0 -142 -2 -160 -20z"/>
<path d="M1120 700 c-18 -18 -20 -33 -20 -164 0 -184 -8 -176 180 -176 189 0
180 -9 180 180 0 189 9 180 -182 180 -125 0 -140 -2 -158 -20z"/>
</g>
</svg>
